<?xml version="1.0" encoding="UTF-8" standalone="no"?>
<svg
   width="210mm"
   height="297mm"
   viewBox="0 0 210 297"
   version="1.1"
   id="svg5"
   sodipodi:docname="Checkerboard-A4-25mm-10x7.svg"
   xml:space="preserve"
   inkscape:version="1.2.1 (1:1.2.1+202210291244+9c6d41e410)"
   xmlns:inkscape="http://www.inkscape.org/namespaces/inkscape"
   xmlns:sodipodi="http://sodipodi.sourceforge.net/DTD/sodipodi-0.dtd"
   xmlns:xlink="http://www.w3.org/1999/xlink"
   xmlns="http://www.w3.org/2000/svg"
   xmlns:svg="http://www.w3.org/2000/svg">

<defs
     id="defs94"><linearGradient
       inkscape:collect="always"
       id="linearGradient3133"><stop
         style="stop-color:#ffffff;stop-opacity:1;"
         offset="0"
         id="stop3129" /><stop
         style="stop-color:#ffffff;stop-opacity:0;"
         offset="1"
         id="stop3131" /></linearGradient><linearGradient
       inkscape:collect="always"
       xlink:href="#linearGradient3133"
       id="linearGradient3135"
       x1="34.106886"
       y1="48.971302"
       x2="143.0771"
       y2="48.971302"
       gradientUnits="userSpaceOnUse" /></defs><sodipodi:namedview
     id="namedview92"
     pagecolor="#ffffff"
     bordercolor="#000000"
     borderopacity="0.25"
     inkscape:showpageshadow="2"
     inkscape:pageopacity="0.0"
     inkscape:pagecheckerboard="0"
     inkscape:deskcolor="#d1d1d1"
     inkscape:document-units="mm"
     showgrid="false"
     inkscape:zoom="0.82520591"
     inkscape:cx="568.34299"
     inkscape:cy="546.53026"
     inkscape:window-width="2560"
     inkscape:window-height="1403"
     inkscape:window-x="2560"
     inkscape:window-y="0"
     inkscape:window-maximized="1"
     inkscape:current-layer="svg5" /><g
     id="checkers"
     transform="rotate(90,101.6641,108.71622)"><rect
       width="25"
       height="25"
       x="61"
       y="5"
       id="rect4" /><rect
       width="25"
       height="25"
       x="111"
       y="5"
       id="rect6" /><rect
       width="25"
       height="25"
       x="161"
       y="5"
       id="rect8" /><rect
       width="25"
       height="25"
       x="211"
       y="5"
       id="rect10" /><rect
       width="25"
       height="25"
       x="261"
       y="5"
       id="rect12" /><rect
       width="25"
       height="25"
       x="86"
       y="30"
       id="rect16" /><rect
       width="25"
       height="25"
       x="136"
       y="30"
       id="rect18" /><rect
       width="25"
       height="25"
       x="186"
       y="30"
       id="rect20" /><rect
       width="25"
       height="25"
       x="236"
       y="30"
       id="rect22" /><rect
       width="25"
       height="25"
       x="61"
       y="55"
       id="rect26" /><rect
       width="25"
       height="25"
       x="111"
       y="55"
       id="rect28" /><rect
       width="25"
       height="25"
       x="161"
       y="55"
       id="rect30" /><rect
       width="25"
       height="25"
       x="211"
       y="55"
       id="rect32" /><rect
       width="25"
       height="25"
       x="261"
       y="55"
       id="rect34" /><rect
       width="25"
       height="25"
       x="86"
       y="80"
       id="rect38" /><rect
       width="25"
       height="25"
       x="136"
       y="80"
       id="rect40" /><rect
       width="25"
       height="25"
       x="186"
       y="80"
       id="rect42" /><rect
       width="25"
       height="25"
       x="236"
       y="80"
       id="rect44" /><rect
       width="25"
       height="25"
       x="61"
       y="105"
       id="rect48" /><rect
       width="25"
       height="25"
       x="111"
       y="105"
       id="rect50" /><rect
       width="25"
       height="25"
       x="161"
       y="105"
       id="rect52" /><rect
       width="25"
       height="25"
       x="211"
       y="105"
       id="rect54" /><rect
       width="25"
       height="25"
       x="261"
       y="105"
       id="rect56" /><rect
       width="25"
       height="25"
       x="86"
       y="130"
       id="rect60" /><rect
       width="25"
       height="25"
       x="136"
       y="130"
       id="rect62" /><rect
       width="25"
       height="25"
       x="186"
       y="130"
       id="rect64" /><rect
       width="25"
       height="25"
       x="236"
       y="130"
       id="rect66" /><rect
       width="25"
       height="25"
       x="61"
       y="155"
       id="rect70" /><rect
       width="25"
       height="25"
       x="111"
       y="155"
       id="rect72" /><rect
       width="25"
       height="25"
       x="161"
       y="155"
       id="rect74" /><rect
       width="25"
       height="25"
       x="211"
       y="155"
       id="rect76" /><rect
       width="25"
       height="25"
       x="261"
       y="155"
       id="rect78" /><rect
       width="25"
       height="25"
       x="86"
       y="180"
       id="rect82" /><rect
       width="25"
       height="25"
       x="136"
       y="180"
       id="rect84" /><rect
       width="25"
       height="25"
       x="186"
       y="180"
       id="rect86" /><rect
       width="25"
       height="25"
       x="236"
       y="180"
       id="rect88" /></g><g
     id="g2341"
     transform="matrix(0.19101406,0,0,0.19897876,-43.931183,23.850762)"><g
       id="g1905"
       transform="matrix(0.26458333,0,0,0.26458333,258.15636,-97.22723)">

  <image 
    href="LINN_qr_code.png" 
    height="1200" 
    width="1200"
    x="0"
    y="0" />


<g
         transform="translate(96,96)"
         id="g1467"><g
           transform="matrix(0.48,0,0,0.48,384,0)"
           id="g613"><g
             style="fill:#000000"
             id="g611">
</g></g></g></g></g>
<text
     xml:space="preserve"
     style="font-size:22.5778px;line-height:normal;font-family:FreeSerif;-inkscape-font-specification:'FreeSerif, Normal';text-decoration-color:#000000;text-anchor:middle;white-space:pre;inline-size:144.703;fill:#000000;fill-opacity:1;stroke:#ff00f1;stroke-width:2;stop-color:#000000"
     x="87.525627"
     y="41.831272"
     id="text2397"
     transform="translate(48.246151,-13.138452)"><tspan
       x="87.525627"
       y="41.831272"
       id="tspan3822"><tspan
         style="font-family:KacstPen;-inkscape-font-specification:KacstPen;stroke:#000000"
         id="tspan3820">Keyword1
</tspan></tspan><tspan
       x="87.525627"
       y="70.961927"
       id="tspan3826"><tspan
         style="font-family:KacstPen;-inkscape-font-specification:KacstPen;stroke:#000000"
         id="tspan3824">Keyword2</tspan></tspan></text>
</svg>
